<svg xmlns="http://www.w3.org/2000/svg" width="31.8" height="31.9" style="enable-background:new 0 0 31.8 31.9" xml:space="preserve"><path d="M31.7 5.4c-.3-1.4-1.5-2.6-2.9-2.9-.3-.1-.8-.1-1.3-.1h-.9V0h-2.4v2.4H7.7V0H5.2v2.4h-.9c-.6 0-1.1 0-1.4.1C1.6 2.9.4 4 .1 5.4 0 6.1 0 28.3.1 28.9c.3 1.4 1.5 2.6 2.9 2.9.7.1 25.3.1 25.9 0 1.4-.3 2.6-1.5 2.9-2.9.1-.6.1-22.8-.1-23.5zm-2.4 14.7v8.4l-.2.2-.4.4-.2.2H3.3l-.2-.2-.4-.4-.2-.2V11.7h26.8v8.4zM15.9 9.2H2.5V7.6c0-.9 0-1.7.1-1.8 0-.2.5-.7.7-.8h2v2.4h2.4V5h16.4v2.4h2.4V5h1c.9 0 1 0 1.2.2l.4.4.2.2v3.4H15.9zM4.7 14.3v2.4h2.5v-2.4H4.7zm5 0v2.4h2.4v-2.4H9.7zm5 0v2.4h2.4v-2.4h-2.4zm7.4 2.5v-2.4h-2.4v2.4h2.4zm5 0v-2.4h-2.4v2.4h2.4zM4.7 19.3v2.4h2.5v-2.4H4.7zm5 0v2.4h2.4v-2.4H9.7zm5 0v2.4h2.4v-2.4h-2.4zm7.4 2.5v-2.4h-2.4v2.4h2.4zm5 0v-2.4h-2.4v2.4h2.4zM4.7 24.3v2.4h2.5v-2.4H4.7zm5 0v2.4h2.4v-2.4H9.7zm5 0v2.4h2.4v-2.4h-2.4zm7.4 2.5v-2.4h-2.4v2.4h2.4z" style="fill:#fff"/></svg>