<svg width="193" height="29" viewBox="0 0 193 29" fill="none" xmlns="http://www.w3.org/2000/svg">
<path d="M78.3046 0H0V28.9151H78.3046V0Z" fill="#A1A5A7"/>
<path d="M192.999 0H78.2598V28.9151H192.999V0Z" fill="#BC002E"/>
<path d="M17.3833 20.957C17.3644 21.0989 17.295 21.2062 17.295 21.2062C17.295 21.2062 17.2225 21.2787 17.0994 21.3134C15.3835 22.0105 13.472 21.7771 13.472 21.7771C10.3809 21.4364 8.41575 19.5439 7.79121 17.0962C6.8607 13.4341 8.70279 10.8255 9.1507 10.2703C10.2421 8.96762 11.9391 8.03712 13.6014 7.82263C15.7273 7.51982 17.3013 8.01819 17.9416 8.23268C17.9416 8.23268 18.6576 8.4661 19.1907 8.82253C19.4588 9.00232 19.4935 9.07171 19.4935 9.07171C19.4935 9.07171 19.5124 9.10641 19.4399 9.39345L18.9384 12.021C18.9194 12.1282 18.8501 12.1818 18.8501 12.1818C18.8501 12.1818 18.8154 12.2007 18.563 12.0399C16.9543 10.898 15.0776 11.04 15.0776 11.04C13.6487 11.1283 11.9864 11.879 11.4848 13.7747C11.0401 15.4528 11.5038 16.8659 12.5037 17.7049C13.1818 18.2948 14.2385 18.5976 15.3457 18.544C16.5601 18.4556 17.5253 17.973 17.4527 18.0077C17.4527 18.0077 17.5063 17.9888 17.56 17.973C17.8091 17.8469 17.8628 17.8658 17.8628 17.8658C17.8628 17.8658 17.9164 17.9194 17.8817 18.0803L17.3833 20.957ZM26.5307 12.043C26.5307 12.043 26.5118 12.043 26.4928 12.0777L24.7075 16.1341C24.6728 16.1877 24.6886 16.2224 24.6886 16.2224C24.6886 16.2224 24.7075 16.2414 24.7958 16.2414L27.4233 16.2603C27.4423 16.2603 27.458 16.2414 27.458 16.2414C27.458 16.2414 27.477 16.2224 27.458 16.1688L26.5465 12.0777C26.5496 12.043 26.5307 12.043 26.5307 12.043ZM56.1902 11.9863C56.1902 11.9863 56.1713 11.9863 56.1555 12.0588L54.3702 16.0963C54.3355 16.2224 54.3513 16.2382 54.3513 16.2382C54.3513 16.2382 54.4049 16.2729 54.4396 16.2729L57.0829 16.254C57.1018 16.254 57.1176 16.254 57.1176 16.254C57.1176 16.254 57.1333 16.235 57.1176 16.1846L56.2249 12.0399C56.2091 11.9863 56.1902 11.9863 56.1902 11.9863ZM31.9623 21.4049L28.7828 21.4238C28.7103 21.4238 28.6598 21.3891 28.6598 21.3891C28.6598 21.3891 28.6409 21.3733 28.6251 21.2472L28.1267 19.1937C28.1267 19.1401 28.092 19.1212 28.092 19.1212C28.092 19.1212 28.0731 19.1212 28.0384 19.1212H23.5468C23.4584 19.1212 23.4048 19.1937 23.4048 19.1937C23.4048 19.1937 23.3323 19.2411 23.2786 19.3672L22.386 21.2787C22.3513 21.3513 22.3324 21.367 22.3324 21.367C22.3324 21.367 22.2787 21.4017 22.2251 21.4017H18.5252C18.4179 21.4207 18.4021 21.367 18.4021 21.367C18.4021 21.367 18.3832 21.3134 18.4211 21.2409L24.8368 8.33993C24.8715 8.26738 24.9252 8.25161 24.9252 8.25161C24.9252 8.25161 24.9599 8.25161 25.0513 8.25161H29.1424C29.2118 8.25161 29.2686 8.30523 29.2686 8.30523C29.2686 8.30523 29.2875 8.32415 29.3033 8.37778L32.0538 21.3134C32.0538 21.367 32.0191 21.3828 32.0191 21.3828C32.0191 21.3828 31.997 21.4049 31.9623 21.4049ZM46.2574 21.4396H42.9865C42.9328 21.4396 42.8792 21.4396 42.8792 21.4396C42.8792 21.4396 42.8603 21.4207 42.8445 21.4049L38.3055 13.3457C38.2677 13.311 38.2519 13.311 38.2519 13.311C38.2519 13.311 38.2172 13.311 38.2172 13.3647L37.0912 21.2787C37.0722 21.367 37.0565 21.386 37.0565 21.386C37.0565 21.386 37.0186 21.4049 36.9681 21.4049H33.7161C33.6625 21.4049 33.6278 21.3702 33.6278 21.3702C33.6278 21.3702 33.5552 21.2976 33.5742 21.2282L35.3626 8.41563C35.3784 8.34308 35.4162 8.32731 35.4162 8.32731C35.4162 8.32731 35.4699 8.27369 35.5235 8.27369H39.1509C39.2045 8.27369 39.2424 8.30838 39.2424 8.30838C39.2424 8.30838 39.2771 8.32731 39.296 8.38093L43.3871 15.5632C43.4596 15.7051 43.5132 15.6862 43.5132 15.6862C43.5132 15.6862 43.5669 15.6862 43.6016 15.5253L44.6393 8.37778C44.6393 8.32415 44.674 8.30523 44.674 8.30523C44.674 8.30523 44.6929 8.27053 44.7466 8.27053L48.1595 8.30523C48.232 8.30523 48.2509 8.32415 48.2509 8.32415C48.2509 8.32415 48.2667 8.34308 48.2667 8.37778L46.4278 21.2976C46.4088 21.3702 46.3742 21.4207 46.3742 21.4207C46.3742 21.4207 46.3458 21.4396 46.2574 21.4396ZM61.5682 21.4585H58.2973C58.2247 21.4932 58.1711 21.4238 58.1711 21.4238C58.1711 21.4238 58.1553 21.4049 58.1364 21.3008L57.7074 19.2821C57.6727 19.1748 57.6349 19.1212 57.6349 19.1212C57.6349 19.1212 57.5466 19.0676 57.4393 19.0676H53.1874C53.099 19.0676 53.0454 19.1212 53.0454 19.1212C53.0454 19.1212 52.9729 19.1937 52.9382 19.301L51.973 21.3576C51.954 21.4112 51.9193 21.4301 51.9193 21.4301C51.9193 21.4301 51.8468 21.449 51.8121 21.449H48.1342C48.0459 21.468 48.0081 21.4143 48.0081 21.4143C48.0081 21.4143 47.9891 21.3796 48.0428 21.3071L54.5279 8.35254C54.5658 8.33362 54.6005 8.27999 54.6005 8.27999C54.6005 8.27999 54.6352 8.26107 54.7424 8.26107H58.7641C58.8524 8.26107 58.906 8.31469 58.906 8.31469C58.906 8.31469 58.925 8.33362 58.9407 8.38724L61.6376 21.3954C61.6376 21.4301 61.6187 21.449 61.6187 21.449C61.6187 21.449 61.6219 21.4585 61.5682 21.4585ZM70.949 21.2598C70.9301 21.367 70.9143 21.4017 70.9143 21.4017C70.9143 21.4017 70.8954 21.4364 70.8071 21.4364H63.445C63.2305 21.4364 63.1769 21.3828 63.1769 21.3828C63.1769 21.3828 63.1422 21.3134 63.158 21.1494L64.9811 8.46294C65.0001 8.30207 65.0348 8.24845 65.0348 8.24845C65.0348 8.24845 65.0505 8.24845 65.2303 8.24845H68.5707C68.659 8.24845 68.6937 8.26738 68.6937 8.26738C68.6937 8.26738 68.7126 8.321 68.6937 8.39355L67.3185 18.3105C67.2995 18.4178 67.3532 18.4367 67.3532 18.4367C67.3532 18.4367 67.3879 18.4556 67.5329 18.4556H71.1793C71.2518 18.4556 71.2865 18.4903 71.2865 18.4903C71.2865 18.4903 71.3054 18.5093 71.3054 18.5976L70.949 21.2598Z" fill="white"/>
<path d="M108.09 8.67118L98.2931 4.97754L83.5469 11.1126L83.6794 17.9731L86.5844 22.8559L99.8134 25.2311L106.541 23.2186L110.434 16.0932L108.09 8.67118ZM104.46 19.9193L100.205 21.7014L88.559 20.6132L86.7453 14.7084L87.7357 12.5982L99.1826 8.83836L104.264 10.8823L106.507 15.5664L104.46 19.9193Z" fill="white"/>
<path d="M121.568 21.4335H113.585L115.433 8.19824H118.969L117.525 18.5221H121.972L121.568 21.4335Z" fill="white"/>
<path d="M129.666 15.6452L128.843 21.4333H125.326L126.149 15.538L122.67 8.198H126.597L127.524 10.3145L127.906 11.1977C128.124 11.6929 128.215 11.939 128.414 12.5572C128.49 12.3806 128.565 12.2575 128.622 12.1881C128.66 12.1187 128.755 11.9768 128.906 11.7655C129.019 11.6078 129.076 11.5194 129.114 11.4816L131.549 8.198H135.848L129.666 15.6452Z" fill="white"/>
<path d="M148.294 21.4332L148.187 15.5032L148.19 15.0616C148.193 14.8156 148.196 14.5853 148.215 14.3393C148.237 13.8819 148.278 13.5791 148.379 12.8757C148.266 13.1407 148.187 13.352 148.13 13.494C147.922 13.9513 147.635 14.5696 147.37 15.0459L143.881 21.4332H142.02L140.863 16.3139C140.755 15.8376 140.686 15.4149 140.613 15.0427C140.509 14.3709 140.44 13.8599 140.32 12.6612C140.241 13.0681 140.162 13.3678 140.124 13.5602C139.91 14.4781 139.736 15.0774 139.544 15.6956L137.699 21.4301H134.056L138.601 8.1948H142.099L143.115 12.6612C143.187 12.9609 143.257 13.3489 143.345 13.8252C143.522 14.7778 143.575 15.1121 143.695 16.1372C143.809 15.8376 143.906 15.6073 143.963 15.4654C144.001 15.396 144.058 15.254 144.171 15.0238C144.323 14.6705 144.455 14.4402 144.512 14.3172L147.868 8.19165H151.518L151.83 21.4269H148.294V21.4332Z" fill="white"/>
<path d="M164.545 15.7682C163.53 16.7555 162.334 17.1277 160.177 17.1277H158.464L157.843 21.4333H154.307L156.155 8.198H160.864C162.577 8.198 163.615 8.42826 164.448 8.99287C165.463 9.6805 166.028 10.8823 166.015 12.2765C165.999 13.5792 165.466 14.8503 164.545 15.7682ZM160.297 10.8444H159.309L158.846 14.2163H159.962C161.546 14.2163 162.369 13.5981 162.382 12.3995C162.394 11.3049 161.785 10.8444 160.297 10.8444Z" fill="white"/>
<path d="M170.426 21.4333H166.89L168.738 8.198H172.274L170.426 21.4333Z" fill="white"/>
<path d="M182.859 21.4333L182.269 19.014H177.411L176.213 21.4333H172.305L179.345 8.198H183.329L186.581 21.4333H182.859ZM181.092 14.0555C180.985 13.5602 180.913 13.2795 180.897 13.1723C180.828 12.7654 180.793 12.573 180.723 12.062C180.648 12.2575 180.591 12.4152 180.55 12.5193C180.414 12.8915 180.244 13.2953 180.074 13.6296L178.743 16.3644H181.591L181.092 14.0555Z" fill="white"/>
</svg>
